<svg width="25" height="25" viewBox="0 0 25 25" fill="none" xmlns="http://www.w3.org/2000/svg">
<path d="M22.9083 15.8155C22.6333 15.8155 22.4103 16.0385 22.4103 16.3135V22.0406C22.4103 22.3157 22.6333 22.5386 22.9083 22.5386C23.1834 22.5386 23.4063 22.3156 23.4063 22.0406V16.3135C23.4064 16.0385 23.1834 15.8155 22.9083 15.8155Z" fill="black" fill-opacity="0.53"/>
<path d="M22.9083 13.8235C22.6333 13.8235 22.4103 14.0465 22.4103 14.3215V14.6701C22.4103 14.9451 22.6333 15.1681 22.9083 15.1681C23.1834 15.1681 23.4063 14.9451 23.4063 14.6701V14.3215C23.4064 14.0465 23.1834 13.8235 22.9083 13.8235Z" fill="black" fill-opacity="0.53"/>
<path d="M24.502 2.81372H22.4104V1.26992C22.4104 0.994925 22.1874 0.771927 21.9124 0.771927C21.6373 0.771927 21.4144 0.994925 21.4144 1.26992V2.81372H19.3227V1.26992C19.3227 0.994925 19.0998 0.771927 18.8247 0.771927C18.5497 0.771927 18.3267 0.994925 18.3267 1.26992V2.81372H16.0857V1.26992C16.0857 0.994925 15.8627 0.771927 15.5877 0.771927C15.3126 0.771927 15.0897 0.994925 15.0897 1.26992V2.81372H12.998V1.26992C12.998 0.994925 12.7751 0.771927 12.5 0.771927C12.225 0.771927 12.0021 0.994925 12.0021 1.26992V2.81372H9.9104V1.26992C9.9104 0.994925 9.68745 0.771927 9.4124 0.771927C9.13735 0.771927 8.9144 0.994925 8.9144 1.26992V2.81372H6.67339V1.26992C6.67339 0.994925 6.45044 0.771927 6.17539 0.771927C5.90034 0.771927 5.67739 0.994925 5.67739 1.26992V2.81372H3.58564V1.26992C3.58564 0.994925 3.3627 0.771927 3.08765 0.771927C2.8126 0.771927 2.58965 0.994925 2.58965 1.26992V2.81372H0.497998C0.222949 2.81372 0 3.03677 0 3.31177V23.7301C0 24.0051 0.222949 24.2281 0.497998 24.2281H24.502C24.7771 24.2281 25 24.0051 25 23.7301V3.31177C25 3.03677 24.7771 2.81372 24.502 2.81372ZM24.004 23.2321H0.995996V7.44903H24.004V23.2321H24.004ZM24.004 6.45298H0.995996V3.80977H2.5896V4.90537C2.5896 5.18037 2.81255 5.40337 3.0876 5.40337C3.36265 5.40337 3.5856 5.18037 3.5856 4.90537V3.80977H5.67725V4.90537C5.67725 5.18037 5.9002 5.40337 6.17524 5.40337C6.45029 5.40337 6.67324 5.18037 6.67324 4.90537V3.80977H8.91426V4.90537C8.91426 5.18037 9.13721 5.40337 9.41226 5.40337C9.6873 5.40337 9.91025 5.18037 9.91025 4.90537V3.80977H12.0019V4.90537C12.0019 5.18037 12.2249 5.40337 12.4999 5.40337C12.775 5.40337 12.9979 5.18037 12.9979 4.90537V3.80977H15.0896V4.90537C15.0896 5.18037 15.3125 5.40337 15.5875 5.40337C15.8626 5.40337 16.0855 5.18037 16.0855 4.90537V3.80977H18.3266V4.90537C18.3266 5.18037 18.5495 5.40337 18.8246 5.40337C19.0996 5.40337 19.3226 5.18037 19.3226 4.90537V3.80977H21.4142V4.90537C21.4142 5.18037 21.6372 5.40337 21.9122 5.40337C22.1873 5.40337 22.4102 5.18037 22.4102 4.90537V3.80977H24.0038V6.45298H24.004Z" fill="black" fill-opacity="0.53"/>
<path d="M21.1653 9.78965H3.83467C3.55962 9.78965 3.33667 10.0126 3.33667 10.2876V20.3934C3.33667 20.6684 3.55962 20.8914 3.83467 20.8914H21.1653C21.4404 20.8914 21.6633 20.6684 21.6633 20.3934V10.2876C21.6633 10.0126 21.4404 9.78965 21.1653 9.78965ZM9.11353 19.8954H4.33267V17.5318H9.11353V19.8954ZM9.11353 16.5357H4.33267V14.1453H9.11353V16.5357ZM9.11353 13.1493H4.33267V10.7856H9.11353V13.1493ZM14.8904 19.8954H10.1096V17.5318H14.8904V19.8954ZM14.8904 16.5357H10.1096V14.1453H14.8904V16.5357ZM14.8904 13.1493H10.1096V10.7856H14.8904V13.1493ZM20.6673 19.8954H15.8865V17.5318H20.6673V19.8954ZM20.6673 16.5357H15.8865V14.1453H20.6673V16.5357ZM20.6673 13.1493H15.8865V10.7856H20.6673V13.1493Z" fill="black" fill-opacity="0.53"/>
</svg>
