<svg width="38" height="38" viewBox="0 0 38 38" fill="none" xmlns="http://www.w3.org/2000/svg">
<path d="M34.8207 24.0396C34.4026 24.0396 34.0637 24.3786 34.0637 24.7966V33.5017C34.0637 33.9198 34.4026 34.2587 34.8207 34.2587C35.2388 34.2587 35.5776 33.9197 35.5776 33.5017V24.7966C35.5777 24.3786 35.2388 24.0396 34.8207 24.0396Z" fill="black" fill-opacity="0.53"/>
<path d="M34.8207 21.0117C34.4026 21.0117 34.0637 21.3507 34.0637 21.7687V22.2985C34.0637 22.7166 34.4026 23.0555 34.8207 23.0555C35.2388 23.0555 35.5776 22.7165 35.5776 22.2985V21.7687C35.5777 21.3507 35.2388 21.0117 34.8207 21.0117Z" fill="black" fill-opacity="0.53"/>
<path d="M37.243 4.27686H34.0637V1.93028C34.0637 1.51228 33.7249 1.17332 33.3068 1.17332C32.8887 1.17332 32.5498 1.51228 32.5498 1.93028V4.27686H29.3705V1.93028C29.3705 1.51228 29.0316 1.17332 28.6136 1.17332C28.1955 1.17332 27.8566 1.51228 27.8566 1.93028V4.27686H24.4503V1.93028C24.4503 1.51228 24.1114 1.17332 23.6933 1.17332C23.2752 1.17332 22.9363 1.51228 22.9363 1.93028V4.27686H19.757V1.93028C19.757 1.51228 19.4181 1.17332 19.0001 1.17332C18.582 1.17332 18.2431 1.51228 18.2431 1.93028V4.27686H15.0638V1.93028C15.0638 1.51228 14.7249 1.17332 14.3069 1.17332C13.8888 1.17332 13.5499 1.51228 13.5499 1.93028V4.27686H10.1436V1.93028C10.1436 1.51228 9.80467 1.17332 9.38659 1.17332C8.96852 1.17332 8.62964 1.51228 8.62964 1.93028V4.27686H5.45018V1.93028C5.45018 1.51228 5.1113 1.17332 4.69322 1.17332C4.27515 1.17332 3.93627 1.51228 3.93627 1.93028V4.27686H0.756957C0.338883 4.27686 0 4.61589 0 5.03389V36.0697C0 36.4877 0.338883 36.8267 0.756957 36.8267H37.243C37.6611 36.8267 38 36.4877 38 36.0697V5.03389C38 4.61589 37.6611 4.27686 37.243 4.27686ZM36.4861 35.3128H1.51391V11.3225H36.486V35.3128H36.4861ZM36.4861 9.80853H1.51391V5.79084H3.93619V7.45616C3.93619 7.87416 4.27507 8.21312 4.69315 8.21312C5.11122 8.21312 5.45011 7.87416 5.45011 7.45616V5.79084H8.62941V7.45616C8.62941 7.87416 8.9683 8.21312 9.38637 8.21312C9.80445 8.21312 10.1433 7.87416 10.1433 7.45616V5.79084H13.5497V7.45616C13.5497 7.87416 13.8886 8.21312 14.3066 8.21312C14.7247 8.21312 15.0636 7.87416 15.0636 7.45616V5.79084H18.2429V7.45616C18.2429 7.87416 18.5818 8.21312 18.9999 8.21312C19.4179 8.21312 19.7568 7.87416 19.7568 7.45616V5.79084H22.9361V7.45616C22.9361 7.87416 23.275 8.21312 23.6931 8.21312C24.1111 8.21312 24.45 7.87416 24.45 7.45616V5.79084H27.8564V7.45616C27.8564 7.87416 28.1953 8.21312 28.6133 8.21312C29.0314 8.21312 29.3703 7.87416 29.3703 7.45616V5.79084H32.5496V7.45616C32.5496 7.87416 32.8885 8.21312 33.3066 8.21312C33.7246 8.21312 34.0635 7.87416 34.0635 7.45616V5.79084H36.4858V9.80853H36.4861Z" fill="black" fill-opacity="0.53"/>
<path d="M32.1713 14.8803H5.8287C5.41063 14.8803 5.07175 15.2192 5.07175 15.6372V30.998C5.07175 31.416 5.41063 31.7549 5.8287 31.7549H32.1713C32.5894 31.7549 32.9283 31.416 32.9283 30.998V15.6372C32.9283 15.2192 32.5894 14.8803 32.1713 14.8803ZM13.8526 30.241H6.58566V26.6483H13.8526V30.241ZM13.8526 25.1343H6.58566V21.5009H13.8526V25.1343ZM13.8526 19.987H6.58566V16.3942H13.8526V19.987ZM22.6335 30.241H15.3666V26.6483H22.6335V30.241ZM22.6335 25.1343H15.3666V21.5009H22.6335V25.1343ZM22.6335 19.987H15.3666V16.3942H22.6335V19.987ZM31.4144 30.241H24.1475V26.6483H31.4144V30.241ZM31.4144 25.1343H24.1475V21.5009H31.4144V25.1343ZM31.4144 19.987H24.1475V16.3942H31.4144V19.987Z" fill="black" fill-opacity="0.53"/>
</svg>
