<svg width="28" height="28" viewBox="0 0 28 28" fill="none" xmlns="http://www.w3.org/2000/svg">
<path d="M23.136 2.50223H17.8228C17.5598 1.08046 16.3115 0 14.8147 0H13.1853C11.6885 0 10.4402 1.08046 10.1772 2.50223H4.86396C4.5559 2.50223 4.3062 2.75198 4.3062 3.05998V6.49332C4.3062 6.80132 4.5559 7.05108 4.86396 7.05108H5.58638V27.4422C5.58638 27.7502 5.83608 28 6.14414 28H21.8559C22.1639 28 22.4136 27.7502 22.4136 27.4422V7.05108H23.136C23.4441 7.05108 23.6938 6.80132 23.6938 6.49332V3.05998C23.6938 2.75198 23.4441 2.50223 23.136 2.50223ZM13.1853 1.11552H14.8147C15.6931 1.11552 16.4374 1.701 16.6776 2.50217H11.3223C11.5627 1.701 12.3069 1.11552 13.1853 1.11552ZM21.298 26.8845H6.70195V7.05108H21.298V26.8845ZM22.5783 5.93556H5.42171V3.61774H22.5783V5.93556H22.5783Z" fill="black"/>
<path d="M14 8.26323C13.0507 8.26323 12.2784 9.03553 12.2784 9.98479V23.9508C12.2784 24.9 13.0507 25.6724 14 25.6724C14.9493 25.6724 15.7216 24.9 15.7216 23.9508V9.98479C15.7216 9.03547 14.9493 8.26323 14 8.26323ZM14.606 23.9508C14.606 24.2849 14.3341 24.5568 14 24.5568C13.6659 24.5568 13.394 24.2849 13.394 23.9508V9.98479C13.394 9.65065 13.6659 9.3788 14 9.3788C14.3341 9.3788 14.606 9.65065 14.606 9.98479V23.9508Z" fill="black"/>
<path d="M9.40286 8.26323C8.45354 8.26323 7.68124 9.03553 7.68124 9.98479V23.9508C7.68124 24.9 8.4536 25.6724 9.40286 25.6724C10.3522 25.6724 11.1245 24.9 11.1245 23.9508V9.98479C11.1245 9.03547 10.3522 8.26323 9.40286 8.26323ZM10.009 23.9508C10.009 24.2849 9.73706 24.5568 9.40292 24.5568C9.06877 24.5568 8.79687 24.2849 8.79687 23.9508V9.98479C8.79687 9.65065 9.06877 9.3788 9.40292 9.3788C9.73706 9.3788 10.009 9.65065 10.009 9.98479V23.9508Z" fill="black"/>
<path d="M18.5971 8.26323C17.6478 8.26323 16.8755 9.03553 16.8755 9.98479V23.9508C16.8755 24.9 17.6478 25.6724 18.5971 25.6724C19.5465 25.6724 20.3188 24.9 20.3188 23.9508V9.98479C20.3188 9.03547 19.5465 8.26323 18.5971 8.26323ZM19.2032 23.9508C19.2032 24.2849 18.9313 24.5568 18.5971 24.5568C18.263 24.5568 17.9911 24.2849 17.9911 23.9508V9.98479C17.9911 9.65065 18.263 9.3788 18.5971 9.3788C18.9313 9.3788 19.2032 9.65065 19.2032 9.98479V23.9508Z" fill="black"/>
<path d="M11.9633 4.36439H6.49332C6.18527 4.36439 5.93556 4.61415 5.93556 4.92215C5.93556 5.23015 6.18527 5.4799 6.49332 5.4799H11.9633C12.2714 5.4799 12.5211 5.23015 12.5211 4.92215C12.5211 4.61415 12.2714 4.36439 11.9633 4.36439Z" fill="black"/>
<path d="M14.1746 4.36439H13.8836C13.5756 4.36439 13.3259 4.61415 13.3259 4.92215C13.3259 5.23015 13.5756 5.4799 13.8836 5.4799H14.1746C14.4826 5.4799 14.7323 5.23015 14.7323 4.92215C14.7324 4.61415 14.4826 4.36439 14.1746 4.36439Z" fill="black"/>
</svg>
