<svg width="28" height="28" viewBox="0 0 28 28" fill="none" xmlns="http://www.w3.org/2000/svg">
<path d="M22.089 0L2.95553 19.1336L0 28L8.86638 25.0445L28 5.91095L22.089 0ZM16.1781 8.27526L17.3603 9.45744L6.05052 20.7673L4.86834 19.5851L16.1781 8.27526ZM3.91191 24.9338L3.06627 24.0881L4.05147 21.1327L6.86738 23.9486L3.91191 24.9338ZM8.41482 23.1317L7.23264 21.9495L18.5425 10.6396L19.7247 11.8218L8.41482 23.1317ZM20.9069 10.6397L17.3603 7.09313L18.5425 5.91095L22.089 9.45755L20.9069 10.6397ZM19.7246 4.72872L22.089 2.3643L25.6356 5.91095L23.2712 8.27531L19.7246 4.72872Z" fill="black"/>
</svg>
